<?xml version="1.0" encoding="utf-8"?>
<svg width="22px" height="21px" viewBox="0 0 22 21" version="1.1" xmlns:xlink="http://www.w3.org/1999/xlink" xmlns="http://www.w3.org/2000/svg">
  <desc>Created with Lunacy</desc>
  <defs>
    <path d="M7.71931 0.292786C7.32881 -0.0975955 6.69581 -0.0975955 6.30531 0.292786L4.01231 2.58579L1.71931 0.292786C1.32693 -0.0861858 0.703228 -0.0807659 0.317494 0.304968C-0.0682394 0.690702 -0.0736592 1.31441 0.305313 1.70679L2.59831 3.99979L0.305313 6.29279C0.0453564 6.54386 -0.0588996 6.91566 0.0326158 7.26529C0.124131 7.61492 0.397176 7.88797 0.746806 7.97948C1.09644 8.071 1.46824 7.96674 1.71931 7.70679L4.01231 5.41379L6.30531 7.70679C6.69769 8.08576 7.3214 8.08034 7.70713 7.6946C8.09286 7.30887 8.09828 6.68517 7.71931 6.29279L5.42631 3.99979L7.71931 1.70679C8.1097 1.31629 8.1097 0.683286 7.71931 0.292786Z" id="path_1" />
    <path d="M7.8504 7.48154C7.66807 7.77632 7.34609 7.95567 6.99947 7.95551L0.999467 7.95551C0.653027 7.95532 0.331364 7.77584 0.149273 7.48111C-0.0328182 7.18638 -0.0493916 6.81841 0.105467 6.50851L3.10547 0.508505C3.29317 0.193196 3.63302 0 3.99997 0C4.36692 0 4.70676 0.193196 4.89447 0.508505L7.89447 6.50851C8.04941 6.81857 8.03273 7.18675 7.8504 7.48154ZM5.38147 5.95551L3.99947 3.19151L2.61747 5.95551L5.38147 5.95551Z" transform="translate(12.012695 0.044281006)" id="path_2" />
    <path d="M1 0L7 0C7.55228 0 8 0.447715 8 1L8 7C8 7.55228 7.55228 8 7 8L1 8C0.447715 8 0 7.55228 0 7L0 1C0 0.447715 0.447715 0 1 0ZM2 6L6 6L6 2L2 2L2 6Z" transform="translate(12.012207 11.999786)" id="path_3" />
    <path d="M0 4C0 1.79086 1.79086 0 4 0C6.20914 0 8 1.79086 8 4C8 6.20914 6.20914 8 4 8C1.79086 8 0 6.20914 0 4ZM2 4C2 5.10457 2.89543 6 4 6C5.10457 6 6 5.10457 6 4C6 2.89543 5.10457 2 4 2C2.89543 2 2 2.89543 2 4Z" transform="translate(0.012207031 11.999786)" id="path_4" />
  </defs>
  <g id="game_icon" transform="translate(0.5 0.5)">
    <g id="Path">
      <use xlink:href="#path_1" fill="none" stroke="#358700" stroke-width="1" />
      <use stroke="none" fill="#FFFFFF" xlink:href="#path_1" />
    </g>
    <g id="Shape">
      <use xlink:href="#path_2" fill="none" stroke="#358700" stroke-width="1" />
      <use stroke="none" fill="#FFFFFF" xlink:href="#path_2" fill-rule="evenodd" />
    </g>
    <g id="Shape">
      <use xlink:href="#path_3" fill="none" stroke="#358700" stroke-width="1" />
      <use stroke="none" fill="#FFFFFF" xlink:href="#path_3" fill-rule="evenodd" />
    </g>
    <g id="Shape">
      <use xlink:href="#path_4" fill="none" stroke="#358700" stroke-width="1" />
      <use stroke="none" fill="#FFFFFF" xlink:href="#path_4" fill-rule="evenodd" />
    </g>
  </g>
</svg>